# xmcd
# 
# Track frame offsets:
#     150
#     15171
#     30357
#     43938
#     58271
#     71203
#     80015
#     90910
#     104319
#     121521
#     136872
#     147549
#     162924
#     171467
#     181367
#     194826
#     208957
#     218277
#     236860
#     251385
# 
# Disc length: 3518
# 
# Revision: 1
# Processed by: cddbd v1.5.2PL0 Copyright (c) Steve Scherf et al.
# Submitted via: fre:ac v1.0.31
# 
DISCID=1e0dbc14
DTITLE=MTJ - 25
DYEAR=2006
DGENRE=Country
TTITLE0=Tähepõllu Lemps
TTITLE1=Vana arm
TTITLE2=Kitarr täis muusikat
TTITLE3=Suveöö blues
TTITLE4=Vein, vein...
TTITLE5=Ega mina papiks...
TTITLE6=Teine kodu
TTITLE7=Tormab aeg nagu vedur
TTITLE8=Nüüd seisan laval ma
TTITLE9=Segi
TTITLE10=Rosaly
TTITLE11=Pulmaöö
TTITLE12=Linnavalitsuse korraldus
TTITLE13=Kes ta on
TTITLE14=Kaine armastus
TTITLE15=Eldorado
TTITLE16=Cafe Orienthal
TTITLE17=Mul on auto, mul on rool...
TTITLE18=Aken Euroopsasse
TTITLE19=Sünnipäev
EXTD=
EXTT0=
EXTT1=
EXTT2=
EXTT3=
EXTT4=
EXTT5=
EXTT6=
EXTT7=
EXTT8=
EXTT9=
EXTT10=
EXTT11=
EXTT12=
EXTT13=
EXTT14=
EXTT15=
EXTT16=
EXTT17=
EXTT18=
EXTT19=
PLAYORDER=
